# xmcd
# 
# Track frame offsets:
#     150
#     109876
#     213425
# 
# Disc length: 4312
# 
# Revision: 3
# Processed by: cddbd v1.5.2PL0 Copyright (c) Steve Scherf et al.
# Submitted via: fre:ac v1.0.17
# 
DISCID=2510d603
DTITLE=Hans Fallada - Bauern, Bonzen und Bomben
DYEAR=1997
DGENRE=Speech
TTITLE0=Montag voll Blut
TTITLE1=Schadensbegrenzung gefragt
TTITLE2=Boykott
EXTD=
EXTT0=
EXTT1=
EXTT2=
PLAYORDER=
